HIERARCHY
ROOT Hips
{
 OFFSET 0.000000 0.000000 0.000000
 CHANNELS 6 Xposition Yposition Zposition Yrotation Xrotation Zrotation
 JOINT Chest
 {
  OFFSET 0.000000 9.585900 0.002600
  CHANNELS 3 Yrotation Xrotation Zrotation
  JOINT Chest2
  {
   OFFSET 0.000000 9.601200 -0.005300
   CHANNELS 3 Yrotation Xrotation Zrotation
   JOINT Chest3
   {
    OFFSET 0.000000 9.561800 0.000000
    CHANNELS 3 Yrotation Xrotation Zrotation
    JOINT Chest4
    {
     OFFSET 0.000000 9.552100 0.000000
     CHANNELS 3 Yrotation Xrotation Zrotation
     JOINT Neck
     {
      OFFSET 0.000000 14.453000 0.000000
      CHANNELS 3 Yrotation Xrotation Zrotation
      JOINT Head
      {
       OFFSET 0.000000 8.936500 -0.011300
       CHANNELS 3 Yrotation Xrotation Zrotation
       End Site
       {
        OFFSET 0.000000 17.073600 -0.006000
       }
      }
     }
     JOINT RightCollar
     {
      OFFSET -2.921100 9.558500 0.000000
      CHANNELS 3 Yrotation Xrotation Zrotation
      JOINT RightShoulder
      {
       OFFSET -13.519700 0.000000 0.000000
       CHANNELS 3 Yrotation Xrotation Zrotation
       JOINT RightElbow
       {
        OFFSET 0.000000 -29.696600 0.000000
        CHANNELS 3 Yrotation Xrotation Zrotation
        JOINT RightWrist
        {
         OFFSET 0.000000 -24.004700 0.000000
         CHANNELS 3 Yrotation Xrotation Zrotation
         End Site
         {
          OFFSET 0.000000 -17.728500 0.000000
         }
        }
       }
      }
     }
     JOINT LeftCollar
     {
      OFFSET 2.921100 9.558500 0.000000
      CHANNELS 3 Yrotation Xrotation Zrotation
      JOINT LeftShoulder
      {
       OFFSET 13.519700 0.000000 0.000000
       CHANNELS 3 Yrotation Xrotation Zrotation
       JOINT LeftElbow
       {
        OFFSET 0.000000 -29.696600 0.000000
        CHANNELS 3 Yrotation Xrotation Zrotation
        JOINT LeftWrist
        {
         OFFSET 0.000000 -24.004700 0.000000
         CHANNELS 3 Yrotation Xrotation Zrotation
         End Site
         {
          OFFSET 0.000000 -17.728500 0.000000
         }
        }
       }
      }
     }
    }
   }
  }
 }
 JOINT RightHip
 {
  OFFSET -7.771700 -0.012900 -0.001300
  CHANNELS 3 Yrotation Xrotation Zrotation
  JOINT RightKnee
  {
   OFFSET 0.000000 -40.869800 0.001200
   CHANNELS 3 Yrotation Xrotation Zrotation
   JOINT RightAnkle
   {
    OFFSET 0.000000 -39.717900 0.002100
    CHANNELS 3 Yrotation Xrotation Zrotation
    JOINT RightToe
    {
     OFFSET 0.000000 -4.965400 11.033500
     CHANNELS 3 Yrotation Xrotation Zrotation
     End Site
     {
      OFFSET 0.000000 -1.423100 5.872300
     }
    }
   }
  }
 }
 JOINT LeftHip
 {
  OFFSET 7.771700 -0.012900 -0.001300
  CHANNELS 3 Yrotation Xrotation Zrotation
  JOINT LeftKnee
  {
   OFFSET 0.000000 -40.869800 0.001200
   CHANNELS 3 Yrotation Xrotation Zrotation
   JOINT LeftAnkle
   {
    OFFSET 0.000000 -39.717900 0.002100
    CHANNELS 3 Yrotation Xrotation Zrotation
    JOINT LeftToe
    {
     OFFSET 0.000000 -4.965400 11.033500
     CHANNELS 3 Yrotation Xrotation Zrotation
     End Site
     {
      OFFSET 0.000000 -1.423100 5.872300
     }
    }
   }
  }
 }
}
MOTION
Frames: 7
Frame Time: 0.008333
0.000000 85.388000 0.000000 0.000000 -5.767877 0.000000 0.000000 11.653817 0.000000 0.000000 -5.885947 0.000000 0.000000 -0.000000 0.000000 0.000000 -0.000000 0.000000 0.000000 12.528835 0.000000 0.000000 0.711642 0.000000 0.000000 -0.000000 0.000000 0.000000 0.000000 -90.000000 0.000000 -2.309062 0.000000 0.000000 2.309062 0.000000 0.000000 -0.000000 0.000000 0.000000 -0.000000 90.000000 0.000000 -2.309062 0.000000 0.000000 2.309062 0.000000 0.000000 8.520406 0.000000 0.000000 1.905762 0.000000 -0.000000 -4.658285 0.000000 0.000000 -0.000000 0.000000 0.000000 8.520406 0.000000 0.000000 1.905762 0.000000 -0.000000 -4.658285 0.000000 0.000000 -0.000000 0.000000
-44.929083 57.872544 11.800914 177.857550 -48.598205 -3.130134 4.056091 22.313112 3.386916 2.087799 12.764441 1.708365 2.665766 15.999555 2.241868 2.085175 12.748134 1.702699 1.623620 13.742659 2.604839 2.010195 -10.237000 4.295547 1.172489 3.225638 1.790171 -8.332534 -16.811749 -8.202486 -60.330813 -33.053236 135.167829 19.211728 11.838583 39.988099 -12.271040 0.578099 0.746202 8.246826 -9.154740 10.290417 70.033209 -40.270533 -138.741268 -9.092356 0.407420 -41.910486 4.390822 -22.839813 -3.230693 -35.209222 73.145725 -39.471907 6.170210 -13.475197 12.141135 0.018481 -0.051202 0.021866 -7.261485 -20.354102 5.452180 87.045615 81.872095 86.516483 1.223322 -21.829193 -18.231258 0.002320 0.040936 0.006125
-44.931022 57.871719 11.802523 177.856600 -48.563228 -3.127669 4.059546 22.272799 3.378963 2.095563 12.757874 1.714294 2.668588 15.951504 2.230844 2.082200 12.764832 1.712482 1.638206 13.770066 2.618866 2.037789 -10.148307 4.334024 1.111792 3.282380 1.831066 -8.222670 -16.840692 -8.257497 -60.382795 -33.054908 135.306022 19.497618 11.936614 40.477631 -12.218522 0.631184 0.718789 8.098691 -9.240098 10.330712 70.060385 -40.224972 -138.754860 -9.221691 0.483656 -42.075935 4.384970 -22.873770 -3.239523 -35.193726 73.145336 -39.455859 6.167904 -13.476869 12.136281 0.019911 -0.048181 0.021263 -7.266676 -20.389663 5.448303 86.999628 81.873010 86.476459 1.231175 -21.822690 -18.242913 0.005094 0.041237 0.009226
-44.933215 57.868293 11.806275 177.849775 -48.505097 -3.120662 4.066141 22.221000 3.375191 2.095637 12.749814 1.715959 2.681617 15.920613 2.227745 2.111223 12.733364 1.713397 1.602866 13.828147 2.640872 2.068278 -10.083195 4.364818 1.049370 3.351995 1.855382 -8.159744 -16.856984 -8.290416 -60.391388 -33.052491 135.411963 19.748169 12.048413 40.913402 -12.195829 0.721209 0.707065 7.980904 -9.316597 10.349371 70.114075 -40.200936 -138.796643 -9.359036 0.580597 -42.231648 4.385800 -22.933439 -3.246476 -35.190393 73.145959 -39.453650 6.160990 -13.480475 12.133940 0.015559 -0.043607 0.019770 -7.268741 -20.449664 5.451771 87.009401 81.872160 86.486852 1.231135 -21.826978 -18.247493 0.007353 0.045808 0.011674
-44.935069 57.868665 11.806295 177.851067 -48.477235 -3.120948 4.073231 22.208632 3.381562 2.092648 12.736660 1.713289 2.710533 15.917278 2.237499 2.086781 12.727934 1.712539 1.622246 13.844051 2.652163 2.059583 -10.064484 4.377386 1.020482 3.366989 1.861438 -7.999351 -16.850896 -8.407268 -60.523394 -32.997424 135.497103 19.987422 12.170532 41.368129 -12.145819 0.758713 0.706401 7.908846 -9.365017 10.347600 70.201585 -40.197876 -138.879974 -9.497957 0.686131 -42.382041 4.380454 -22.962027 -3.249130 -35.177429 73.150359 -39.443248 6.154939 -13.479507 12.131502 0.010182 -0.046176 0.017448 -7.272854 -20.478261 5.452360 87.026179 81.870520 86.504242 1.229143 -21.826852 -18.250201 0.009112 0.043734 0.013802
-44.936756 57.869163 11.805628 177.851105 -48.453049 -3.120275 4.081012 22.200713 3.386506 2.095838 12.730932 1.715163 2.705159 15.911917 2.236807 2.089191 12.721432 1.712733 1.642073 13.864419 2.667095 2.053372 -10.055700 4.385374 0.979210 3.398382 1.870162 -7.864989 -16.844763 -8.498908 -60.559610 -32.984586 135.635677 20.220699 12.280164 41.696930 -12.124832 0.777958 0.708022 7.875329 -9.439813 10.339306 70.269030 -40.192885 -138.904637 -9.634138 0.790608 -42.543925 4.365899 -22.989593 -3.255646 -35.147187 73.160574 -39.419191 6.163235 -13.479937 12.125022 0.016531 -0.051811 0.013322 -7.278251 -20.504962 5.448067 87.090149 81.865441 86.569019 1.233940 -21.827645 -18.254599 0.004458 0.039999 0.011471
-44.936955 57.870703 11.803462 177.851576 -48.441296 -3.126899 4.091030 22.208814 3.399065 2.077753 12.764647 1.725827 2.692568 15.901736 2.232878 2.090092 12.735890 1.717193 1.686381 13.881651 2.699365 2.116666 -10.052059 4.405156 0.943662 3.439312 1.827204 -7.729781 -16.881273 -8.551934 -60.581241 -32.986716 135.756588 20.432015 12.382365 42.022283 -12.047526 0.789425 0.697788 7.914378 -9.554847 10.297602 70.285224 -40.204521 -138.947229 -9.768674 0.883425 -42.734223 4.361220 -23.001998 -3.251217 -35.141851 73.165214 -39.412135 6.168349 -13.479918 12.126447 0.015880 -0.056173 0.007533 -7.282314 -20.516535 5.454499 87.146498 81.868870 86.627407 1.237715 -21.830523 -18.257627 0.002348 0.036013 0.010079
